<svg width="19" height="25" viewBox="0 0 19 25" fill="none" xmlns="http://www.w3.org/2000/svg">
<path id="Subtract" fill-rule="evenodd" clip-rule="evenodd" d="M1.38453 16.8234L1.38073 16.8286L1.37706 16.8338C1.17216 17.1239 0.713182 17.2091 0.354247 16.9556C0.0669166 16.7527 -0.0194578 16.3005 0.225213 15.9431C0.590274 15.4778 0.855398 14.9337 1.02953 14.4019C1.21082 13.8482 1.29513 13.2191 1.29185 12.602C1.28856 11.985 1.19755 11.3568 1.01038 10.8051C0.830591 10.2751 0.559688 9.73393 0.189692 9.2725C-0.0587704 8.91776 0.0227835 8.46469 0.307936 8.25871C0.664151 8.00139 1.12401 8.08175 1.33199 8.36966L1.33572 8.37482L1.33957 8.37989C1.80008 8.98715 2.1778 9.66185 2.40352 10.3238C2.64111 11.1025 2.79246 11.8557 2.79639 12.594C2.80053 13.371 2.72628 14.1064 2.44118 14.8303C2.13067 15.6187 1.82999 16.2228 1.38453 16.8234ZM4.71418 18.2655L4.72318 18.2528L4.73144 18.2395C5.75212 16.6042 6.34084 14.6309 6.32989 12.5752C6.31895 10.52 5.70955 8.55356 4.67199 6.92946C4.44714 6.57289 4.54814 6.1513 4.92714 5.87753C5.18167 5.69367 5.65953 5.75877 5.94305 6.13873C7.11448 7.99733 7.82206 10.2441 7.83443 12.5672C7.84723 14.9696 7.16415 17.1434 6.0115 19.0156C5.74486 19.3826 5.33666 19.4855 4.98465 19.2774C4.60303 18.9978 4.53328 18.5216 4.71418 18.2655ZM10.6892 3.69577L10.6992 3.71563L10.7109 3.73461C12.2982 6.32252 13.1803 9.30759 13.1975 12.5386C13.2147 15.7682 12.3652 18.7612 10.8069 21.3651C10.568 21.7492 10.1647 21.8575 9.75577 21.6672C9.38361 21.4247 9.28363 21.0227 9.47802 20.6168C10.8033 18.2632 11.6274 15.4897 11.6117 12.5471C11.5961 9.61762 10.8301 6.84856 9.38937 4.49478C9.19443 4.09287 9.29096 3.6926 9.6587 3.44729C10.1024 3.23535 10.5346 3.39069 10.6892 3.69577ZM15.3892 1.23291L15.396 1.24648L15.4037 1.25964C17.3272 4.58462 18.4573 8.38604 18.4793 12.5105C18.5012 16.6307 17.4139 20.4404 15.5295 23.7832C15.2901 24.1629 14.8887 24.2693 14.4817 24.0799C14.1107 23.8381 14.0102 23.4379 14.2022 23.0333C16.0176 19.9349 16.9951 16.3453 16.9748 12.5185C16.9543 8.6819 15.8525 5.10618 14.0925 2.03838C13.872 1.59055 14.0274 1.15194 14.3352 0.995981C14.787 0.767056 15.2319 0.922454 15.3892 1.23291Z" fill="white"/>
</svg>
